<?xml version="1.0" encoding="UTF-8" standalone="no"?>
<!DOCTYPE svg PUBLIC "-//W3C//DTD SVG 1.1//EN" "http://www.w3.org/Graphics/SVG/1.1/DTD/svg11.dtd">
<svg width="100%" height="100%" viewBox="0 0 700 893" version="1.1" xmlns="http://www.w3.org/2000/svg" xmlns:xlink="http://www.w3.org/1999/xlink" xml:space="preserve" xmlns:serif="http://www.serif.com/" style="fill-rule:evenodd;clip-rule:evenodd;stroke-linejoin:round;stroke-miterlimit:2;">
    <g transform="matrix(1,0,0,1,-150.677072,-53.016913)">
        <g id="schild-zw.png" serif:id="schild zw.png" transform="matrix(1,0,0,1,147,50)">
            <path d="M5.819,395.5C5.419,66.11 4.228,66.14 4.201,37.5C4.181,17.271 1.246,5.776 9.485,4.434C22.59,2.3 173.347,4.222 589.5,4.222C679.806,4.222 679.711,2.508 687.526,3.168C699.687,4.194 702.603,6.348 702.684,14.5C702.684,14.501 702.684,435.86 702.684,472.5C702.684,558.119 696.238,561.488 682.709,619.551C675.913,648.719 655.316,694.053 647.214,707.321C619.503,752.699 611.099,763.493 591.95,783.923C583.432,793.012 537.987,841.499 462.453,870.383C428.334,883.43 410.183,886.661 405.499,887.495C362.299,895.185 362.186,894.434 358.442,895.163C351.983,896.421 352.025,895.835 345.537,895.073C281.153,887.519 214.386,860.753 175.561,834.407C136.42,807.847 137.459,806.463 104.681,772.33C89.719,756.75 56.644,705.356 54.788,700.398C38.405,656.637 29.716,640.787 23.267,615.563C4.677,542.845 7.203,491.017 7.064,488.525C6.618,480.513 5.875,480.535 5.819,395.5ZM213.5,192.833C261.896,192.833 340.441,192.446 346.498,192.536C349.918,192.587 348.87,199.816 348.87,205.5C348.87,246.302 349.175,246.721 348.343,247.034C346.906,247.576 347.105,246.705 344.183,242.786C342.606,240.671 341.382,246.086 341.299,246.45C335.004,274.286 320.173,292.552 345.047,313.993C353.22,321.038 350.118,322.715 350.118,333.5C350.118,346.673 351.471,347.562 345.228,354.252C323.681,377.342 321.607,378.926 321.725,402.561C321.749,407.386 318.535,401.511 309.432,387.547C304.222,379.555 333.768,374.655 328.652,335.473C327.555,327.069 319.995,312.567 319.132,311.968C315.867,309.7 288.504,335.915 297.222,363.56C298.745,368.391 296.036,367.388 295.864,367.135C277.543,340.186 274.958,331.797 273.909,328.392C272.869,325.017 274.989,326.021 278.483,325.392C282.859,324.604 312.671,319.234 314.978,283.462C315.341,277.83 282.274,282.977 273.843,316.62C270.675,329.265 265.14,306.333 276.272,268.405C277.479,264.292 290.746,264.703 299.783,243.63C303.282,235.469 308.798,210.738 303.516,211.803C275.249,217.498 274.073,248.96 267.115,293.439C263.414,317.097 263.437,274.443 235.437,268.913C225.356,266.922 232.671,280.021 235.33,290.537C237.72,299.989 245.073,298.299 259.614,303.219C265.84,305.326 261.893,308.124 267.052,328.609C274.755,359.195 287.874,368.771 288.626,371.464C289.852,375.856 280.184,369.311 275.192,365.948C273.225,364.622 251.193,349.777 250.634,349.335C247.571,346.909 252.5,324.963 239.067,306.827C231.799,297.015 219.855,292.538 217.501,292.327C213.868,292 215.917,309.165 216.249,310.556C221.275,331.623 231.359,335.392 231.392,337.494C231.435,340.179 224.246,335.219 221.498,335.254C212.033,335.375 195.92,330.004 185.811,345.708C178.732,356.706 181.561,358.537 184.752,360.022C205.435,369.651 217.425,344.08 218.675,342.63C219.357,341.839 220.593,340.406 231.343,345.817C236.652,348.49 227.984,354.706 230.857,367.433C234.72,384.54 244.461,380.49 244.593,385.493C245.212,408.961 248.442,410.174 246.457,410.401C243.679,410.718 244.508,409.235 240.167,400.665C231.705,383.961 226.045,393.155 214.487,394.026C210.046,394.36 210.816,396.32 212.902,400.285C223.217,419.891 230.38,418.512 232.459,418.111C244.677,415.759 247.73,413.744 249.266,421.54C252.997,440.477 255.072,439.989 254.839,441.641C254.107,446.84 248.526,433.011 229.457,427.706C217.217,424.3 198.483,434.772 200.339,439.574C204.149,449.433 222.148,459.458 224.385,460.704C231.214,464.508 217.344,473.887 223.241,488.578C226.671,497.123 185.634,470.797 183.543,463.488C183.069,461.833 198.1,422.037 177.256,400.73C171.393,394.736 167.424,391.357 165.841,399.576C164.121,408.501 158.567,431.027 170.683,449.379C172.78,452.555 180.379,458.028 175.498,457.184C155.619,453.747 157.213,394.421 127.47,392.775C118.094,392.256 116.713,393.555 117.723,397.449C122.497,415.869 126.345,432.094 144.499,432.55C149.904,432.686 151.517,430.852 155.142,437.695C159.666,446.235 165.005,452.337 159.468,449.598C158.512,449.126 153.276,446.537 146.5,446.539C134.098,446.543 123.461,457.758 128.63,462.348C135.458,468.412 135.352,469.771 144.496,469.389C159.374,468.769 162.78,462.519 163.666,461.703C172.025,454.007 182.176,472.74 193.345,479.699C198.26,482.762 190.792,482.229 190.489,482.207C170.937,480.813 152.816,499.022 161.735,503.006C179.196,510.806 196.477,488.305 196.839,487.933C200.091,484.59 230.956,505.319 233.718,507.174C250.977,518.766 253.277,518.661 255.235,519.805C260.938,523.137 236.815,527.125 225.325,537.301C220.993,541.137 220.072,529.626 215.263,523.682C211.347,518.841 198.51,514.635 201.552,527.484C203.448,535.495 221.44,541.1 214.509,542.522C191.437,547.257 178.102,530.7 176.222,528.792C166.528,518.956 147.021,521.757 150.793,528.347C158.349,541.547 167.744,537.822 179.549,540.297C179.892,540.369 195.657,545.443 195.705,546.47C195.87,549.999 161.755,538.989 160.436,596.503C160.338,600.774 176.732,599.011 186.292,594.102C204.836,584.58 201.926,559.72 201.549,556.496C200.864,550.641 214.373,547.733 217.598,546.815C221.339,545.75 228.353,542.521 226.813,546.558C226.399,547.643 226.194,547.573 221.726,569.524C220.919,573.492 232.495,572.757 242.336,567.203C255.37,559.849 248.419,542.859 253.333,533.407C255.661,528.93 273.03,531.862 285.306,538.841C312.384,554.237 328.467,600.898 328.428,601.492C327.943,608.897 296.277,592.908 298.208,568.488C299.183,556.148 294.967,556.56 278.564,554.127C277.738,554.004 273.233,551.564 272.488,554.496C268.329,570.864 281.79,581.679 283.714,583.224C287.806,586.511 302.834,592.566 289.526,590.234C274.928,587.675 250.059,602.909 241.438,604.153C218.243,607.502 217.297,620.629 215.361,627.462C213.726,633.228 210.057,636.647 215.693,639.032C242.187,650.24 248.056,608.766 251.128,606.104C252.601,604.828 272.54,598.8 274.424,598.231C283.83,595.388 298.411,599.222 300.544,600.436C307.375,604.322 307.711,603.364 308.223,603.797C313.595,608.343 293.629,601.347 287.845,621.585C284.896,631.9 299.365,629.772 302.262,628.067C309.798,623.634 312.13,612.22 312.999,609.732C314.155,606.422 320.762,612.277 321.29,612.745C334.937,624.839 334.935,628.307 331.343,714.492C330.193,742.106 330.4,742.088 330.287,744.486C328.393,784.99 328.854,784.991 328.68,788.511C326.597,830.545 326.911,830.461 324.65,872.509C324.357,877.95 325.734,881.144 320.451,879.673C286.076,870.103 275.814,869.901 264.621,865.205C209.537,842.09 195.453,834.338 189.684,831.163C165.411,817.803 116.878,775.537 101.391,752.574C71.098,707.655 69.732,704.941 67.498,700.501C28.098,622.218 23.798,566.863 21.86,552.457C18.376,526.562 16.248,526.76 15.773,458.493C15.627,437.455 14.318,249.128 15.687,195.509C15.787,191.619 18.697,192.536 22.5,192.537C86.167,192.636 149.833,192.734 213.5,192.833ZM115.5,182.823C110.619,182.823 61.693,182.823 54.499,182.786C16.004,182.585 15.509,182.867 14.714,181.416C14.337,180.726 13.116,105.424 13.476,49.5C13.696,15.49 13.433,14.572 15.583,13.913C16.251,13.709 676.762,13.298 686.5,13.488C688.477,13.527 693.206,11.549 692.541,25.502C691.171,54.219 694.251,179.727 691.355,182.263C690.285,183.199 294.92,183.401 115.5,182.823ZM361.575,862.5C361.389,847.638 360.922,686.629 360.921,684.5C360.893,616.308 360.688,615.677 362.551,614.592C363.937,613.785 430.755,584.547 436.692,581.949C517.441,546.614 635.935,494.418 642.529,491.57C675.207,477.454 689.899,470.139 691.012,470.996C691.941,471.71 691.943,518.703 689.81,533.545C684.22,572.449 684.863,575.706 669.778,627.591C653.677,682.971 639.34,698.142 618.391,734.44C604.684,758.191 600.599,756.018 571.956,790.891C560.565,804.761 514.178,830.263 495.193,843.06C476.647,855.559 406.171,882.392 363.529,882.196C360.931,882.184 361.607,876.957 361.575,862.5ZM534.357,395.157C536.198,401.395 542.102,428.574 559.246,410.251C569.691,399.088 577.544,394.162 579.909,380.587C582.7,364.566 578.905,359.709 578.767,359.425C574.112,349.78 577.375,349.25 577.197,337.513C576.877,316.502 578.703,316.136 575.49,309.505C568.285,294.636 572.265,291.196 567.471,290.781C556.905,289.869 559.608,316.331 558.986,318.706C558.355,321.118 526.89,320.553 518.479,323.432C512.215,325.576 514.453,321.122 514.656,314.524C514.705,312.945 518.326,308.981 518.773,306.532C519.779,301.005 519.179,301.008 520.047,295.441C520.133,294.887 520.726,291.081 518.346,288.643C514.827,285.037 485.03,288.118 483.414,286.592C480.082,283.447 484.949,280.832 467.823,253.308C465.733,249.95 469.637,246.317 471.318,240.457C474.381,229.784 465.073,232.872 464.274,227.517C463.701,223.678 461.174,224.976 460.39,222.553C457.958,215.044 448.708,219.448 447.488,220.488C444.558,222.988 440.784,219.56 436.556,217.382C429.386,213.689 424.99,220.467 423.818,227.545C422.422,235.969 429.914,236.359 429.284,239.489C427.729,247.211 428.491,249.822 429.597,256.481C431.684,269.036 428.85,273.905 428.862,282.5C428.891,303.661 425.398,304.732 433.059,316.781C455.256,351.693 451.551,361.192 453.477,367.505C459.043,385.757 457.005,386.196 462.027,404.669C464.506,413.791 458.719,420.086 460.426,429.512C462.915,443.265 463.344,457.629 463.009,458.18C462.055,459.747 461.822,459.566 442.295,468.03C369.582,499.544 369.951,500.12 363.555,502.66C359.004,504.469 360.892,500.114 360.893,441.5C360.894,193.991 360.771,193.607 361.809,192.96C362.972,192.236 659.029,193.059 659.517,193.08C681.399,193.999 691.005,191.075 691.505,194.499C691.724,195.993 691.886,297.023 691.735,343.5C691.696,355.305 693.424,357.73 687.417,360.314C616.243,390.93 616.862,392.17 545.564,422.653C541.964,424.193 539.027,426.295 538.277,423.601C536.36,416.715 537.917,416.173 533.99,410.231C533.804,409.949 531.903,401.755 534.357,395.157ZM691.565,453.5C691.538,460.826 693.2,463.527 687.708,465.978C666.585,475.406 365.155,607.685 364.673,607.904C359.339,610.325 360.7,606.313 360.586,600.5C360.448,593.461 359.586,549.591 360.56,512.503C360.654,508.913 361.936,509.054 399.526,492.561C495.576,450.345 591.627,408.13 687.678,365.914C693.153,363.499 691.831,367.523 691.823,373.5C691.772,413.11 691.842,413.061 691.812,416.501C691.787,419.461 691.565,445.269 691.565,453.5ZM512.034,330.662C507.951,341.579 491.548,330.232 490.332,333.38C488.083,339.204 503.478,336.528 503.044,340.473C501.758,352.163 509.251,347.29 513.571,348.316C515.932,348.877 515.476,364.337 517.771,375.461C519.488,383.79 523.337,379.545 529.848,382.066C529.864,382.797 530.122,385.192 530.151,385.463C530.156,385.51 530.798,393.332 530.808,393.471C531.513,403.117 528.94,407.526 531.279,411.636C532.184,413.226 533.864,412.669 535.609,425.502C535.897,427.614 532.377,428.446 531.617,428.78C473.505,454.293 473.663,454.574 468.509,456.538C467.656,456.863 465.487,457.069 465.601,445.501C465.645,441.055 462.788,432.615 463.177,423.468C463.478,416.373 467.594,416.533 464.822,403.454C453.875,351.82 454.015,351.826 452.352,347.557C439.263,313.945 429.878,316.684 431.309,298.488C432.412,284.464 431.44,284.449 433.075,270.454C434.361,259.442 430.951,253.1 431.49,244.5C432.222,232.825 438.252,245.777 446.503,247.484C450.15,248.239 452.004,241.344 452.655,240.708C456.984,236.481 451.769,247.675 451.938,249.432C452.499,255.263 449.268,257.037 446.872,259.848C442.74,264.695 444.18,266.43 443.952,282.537C443.715,299.24 441.182,301.196 455.827,316.189C461.115,321.602 459.375,322.852 464.631,328.377C471.471,335.568 469.306,336.952 474.902,345.213C479.845,352.511 483.545,338.05 469.811,326.128C458.946,316.696 460.213,301.636 462.878,298.872C473.867,287.477 497.004,290.054 513.497,290.127C520.694,290.159 515.099,301.432 515.752,303.424C516.993,307.205 512.746,306.898 511.818,307.835C509.389,310.288 510.947,310.746 511.542,315.496C511.849,317.944 506.522,319.849 509.727,321.175C517.449,324.368 500.575,326.362 500.478,326.481C496.607,331.264 509.829,327.366 512.034,330.662ZM248.689,360.506C248.631,356.84 248.548,356.853 248.626,356.546C249.037,354.944 253.064,357.465 253.396,357.674C358.29,423.363 339.96,553.52 339.24,577.443C339.232,577.705 338.535,581.147 336.022,576.873C325.418,558.838 308.875,545.291 304.964,521.435C300.84,496.282 283.339,475.699 289.537,474.618C298.042,473.134 297.849,472.431 306.547,471.81C314.111,471.27 314.717,442.038 314.622,441.476C314.034,438.014 304.293,442.08 303.466,442.425C296.778,445.217 294.842,442.677 291.844,448.671C285.682,460.995 287.706,468.549 287.272,469.398C286.441,471.023 281.294,470.897 280.902,447.492C280.749,438.385 266.667,427.515 264.453,428.421C262.527,429.21 263.763,439.557 263.878,440.519C264.214,443.336 262.097,443.918 260.916,441.272C258.973,436.917 259.657,436.705 257.554,432.473C253.714,424.746 287.073,404.322 273.01,377.843C271.191,374.417 254.523,381.82 256.114,418.462C256.193,420.303 253.906,421.247 253.198,417.62C246.49,383.254 247.166,382.829 248.689,360.506ZM518.741,354.482C518.175,345.853 517.513,327.765 517.639,327.527C519.601,323.805 560.52,323.325 569.489,322.286C574.532,321.702 574.062,323.662 574.096,327.516C574.231,342.563 574.517,348.641 571.858,352.766C569.535,356.371 576.092,371.148 568.03,360.905C567.924,360.77 560.175,353.569 561.38,362.499C561.96,366.801 558.381,361.469 554.5,363.5C548.96,366.4 558.988,371.28 558.965,372.546C558.957,372.989 558.717,373.954 553.448,371.992C547.517,369.783 550.027,377.57 549.958,377.749C549.265,379.559 525.418,377.81 523.508,377.459C520.114,376.836 519.785,363.685 518.741,354.482ZM241.506,480.5C240.894,473.141 235.354,471.303 232.816,467.283C228.329,460.177 235.778,461.385 236.455,461.274C243.223,460.166 251.346,452.083 251.712,451.862C259.976,446.85 286.705,492.604 273.332,480.738C265.134,473.465 251.858,478.137 250.529,479.53C248.963,481.171 255.845,497.663 263.476,499.603C268.871,500.975 275.177,496.024 275.646,495.757C287.428,489.034 291.493,513.786 293.88,525.476C295.592,533.858 277.428,515.318 238.323,499.883C232.471,497.573 239.987,489.472 241.506,480.5ZM458.531,315.553C447.171,302.273 447.178,300.128 447.184,298.489C447.259,278.147 445.87,278.201 446.605,267.525C446.689,266.309 446.878,263.563 454.506,254.506C456.202,252.492 456.418,255.558 461.582,256.086C463.774,256.31 467.51,261.047 467.448,263.497C467.14,275.74 472.624,273.967 476.64,285.459C478.893,291.907 459.575,288.712 458.386,303.49C457.655,312.585 459.098,312.48 459.167,315.093C459.174,315.355 458.524,315.292 458.531,315.553ZM532.569,381.809C548.509,381.961 550.805,381.284 552.349,384.576C552.582,385.073 554.874,389.96 556.518,390.032C562.284,390.282 558.36,378.877 559.475,378.471C559.78,378.359 563.726,378.12 563.552,376.518C563.237,373.605 561.829,371.226 564.467,372.581C564.869,372.787 566.991,376.316 568.416,374.435C570.31,371.934 562.57,363.67 566.509,364.186C566.851,364.231 571.218,367.65 571.579,371.493C571.615,371.877 572.175,377.827 574.416,375.389C577.473,372.063 573.506,358.003 576.508,360.335C580.13,363.15 577.495,375.221 577.219,376.485C576.889,377.998 577.951,382.083 572.255,392.365C569.231,397.824 564.704,399.538 559.904,404.884C555.319,409.991 551.97,416.743 543.435,410.599C541.503,409.208 540.303,404.171 540.159,403.568C538.869,398.156 538.413,398.384 535.948,393.438C534.981,387.379 533.808,387.776 532.569,381.809ZM343.029,431.516C343.888,447.049 348.607,451.101 344.646,449.14C340.171,446.926 327.49,400.276 336.704,378.589C337.026,377.832 336.401,376.965 345.672,372.916C348.553,371.658 350.111,370.366 350.139,373.542C350.338,395.787 350.557,395.855 349.722,397.589C345.705,405.939 342.65,410.554 343.029,431.516ZM447.383,225.787C468.601,234.333 469.034,235.1 468.798,237.52C468.284,242.808 467.093,242.379 465.339,247.454C461.813,257.653 454.394,250.989 455.933,246.637C460.362,234.113 453.35,236.3 452.629,236.723C447.547,239.709 449.789,245.044 444.727,243.014C439.702,240.999 439.277,236.606 432.518,235.355C421.059,233.234 428.627,216.863 434.34,219.783C440.76,223.065 440.564,223.273 447.383,225.787ZM568.606,311.466C570.072,315.643 571.376,318.442 568.578,318.781C560,319.818 561.96,315.785 562.1,311.486C562.124,310.726 561.943,295.919 564.918,302.181C567.098,306.769 567.904,309.65 568.606,311.466ZM514.465,332.206C514.929,333.38 515.42,333.173 515.382,334.528C515.167,342.064 515.316,345.053 513.435,345.157C507.135,345.506 503.602,345.116 506.667,339.611C507.784,337.605 508.272,338.307 510.446,337.387C512.95,336.327 514.401,332.318 514.465,332.206ZM454.463,224.608C449.901,222.816 455.507,221.613 455.52,221.612C455.774,221.603 460.587,224.106 454.463,224.608Z" style="fill-opacity:0.98;"/>
            <path d="M460.488,695.714C458.468,695.566 446.11,694.662 435.548,691.335C410.399,683.412 391.645,665.736 391.563,665.473C389.928,660.265 421.351,636.074 447.565,632.921C515.729,624.722 557.664,664.289 566.362,659.259C572.598,655.654 572.433,655.575 579.331,652.16C603.375,640.256 613.328,629.408 618.096,632.979C625.084,638.213 572.856,660.486 572.703,663.533C572.614,665.309 615.978,688.109 617.519,690.487C620.645,695.31 615.905,696.209 608.728,692.067C566.8,667.866 565.538,666.48 560.532,668.58C517.797,686.506 506.432,695.895 460.488,695.714ZM464.501,690.005C460.895,689.887 438.532,689.151 420.764,679.036C399.15,666.732 400.199,664.047 401.575,662.564C414.604,648.527 431.533,643.349 434.484,642.446C482.137,627.87 526.6,649.706 540.454,656.586C551.381,662.013 558.482,663.682 551.565,666.633C492.91,691.659 476.885,689.797 464.501,690.005Z" style="fill-opacity:0.96;"/>
            <path d="M297.478,157.18C296.167,157.233 282.733,159.317 285.2,153.373C287.833,147.029 303.213,158.323 303.461,135.5C303.805,103.953 304.252,103.581 302.33,101.674C301.605,100.954 301.519,100.454 250.5,100.546C242.312,100.561 244.3,104.921 244.3,117.5C244.3,143.571 242.311,148.587 257.539,151.214C261.278,151.859 262.715,150.778 263.093,154.512C263.767,161.183 250.846,154.581 223.53,156.798C216.986,157.329 204.212,159.272 206.453,153.481C208.276,148.767 223.546,154.547 224.548,140.505C224.896,135.624 225.346,60.168 224.191,55.563C220.376,40.359 202.888,48.023 206.672,40.572C209.236,35.524 213.827,41.653 247.489,39.259C254.656,38.749 263.972,37.238 262.504,42.501C261.18,47.248 245.306,42.292 244.497,57.5C244.354,60.189 242.86,88.271 244.966,91.16C246.247,92.919 246.778,92.617 291.5,92.623C297.096,92.624 303.4,94.436 303.475,87.5C303.801,57.564 304.094,47.789 293.439,45.748C287.128,44.54 286.648,45.319 285.566,43.46C282.643,38.437 289.946,38.694 290.493,38.714C311.036,39.437 310.977,39.937 331.519,38.913C332.236,38.878 339.361,38.523 340.467,39.533C341.861,40.807 341.368,44.287 338.568,44.796C332.143,45.963 331.32,44.163 326.638,48.653C321.619,53.466 322.303,54.601 322.911,135.494C323.083,158.306 339.385,146.913 341.511,153.496C342.873,157.71 337.013,157.525 336.5,157.508C316.88,156.887 316.965,155.563 297.478,157.18Z" style="fill-opacity:0.98;"/>
            <path d="M565.807,59.479C565.301,55.417 565.647,55.396 564.361,51.545C560.95,41.329 551.239,47.657 550.28,42.545C549.106,36.289 561.532,39.507 563.473,39.738C577.316,41.38 592.871,35.043 591.548,42.51C590.569,48.033 578.505,39.465 575.934,58.547C571.599,90.715 591.93,157.381 532.505,158.672C469.808,160.035 482.884,122.434 481.409,63.503C480.792,38.843 464.302,49.397 462.974,42.416C461.923,36.884 474.131,39.015 476.518,39.234C509.779,42.283 518.777,34.718 518.906,41.486C518.989,45.824 510.633,45.699 510.547,45.713C498.885,47.626 500.558,60.031 500.558,88.5C500.558,105.79 495.212,149.411 532.498,149.226C566.16,149.059 566.247,120.044 566.344,111.5C566.746,76.367 566.038,63.635 565.807,59.479Z" style="fill-opacity:0.98;"/>
            <path d="M88.689,99.5C88.791,95.883 88.05,79.411 97.944,62.746C107.289,47.006 121.914,41.494 124.507,40.517C162.515,26.192 182.971,49.058 187.13,44.113C193.027,37.101 193.758,42.994 193.685,43.515C190.359,67.09 197.611,72.276 193.383,75.273C184.774,81.375 191.088,51.756 159.48,44.61C121.234,35.963 103.678,78.18 114.165,118.583C125.62,162.709 167.213,151.37 175.273,145.189C189.682,134.137 188.396,114.81 192.489,114.393C196.121,114.024 195.876,119.041 195.853,119.532C194.896,139.166 195.799,140.91 196.499,154.5C196.663,157.694 192.851,159.779 190.743,155.395C184.563,142.546 178.659,157.177 156.499,158.494C87.641,162.586 89.035,109.451 88.689,99.5Z" style="fill-opacity:0.98;"/>
            <path d="M639.484,37.181C652.322,37.153 652.204,37.827 664.575,41.054C667.772,41.888 675.376,34.66 674.348,41.478C670.801,64.981 677.214,65.808 674.079,70.228C669.822,76.229 667.195,61.671 665.462,57.516C657.116,37.507 625.533,42.231 621.33,57.455C613.372,86.284 668.264,83.369 678.292,113.571C690.641,150.763 647.155,169.143 616.56,153.39C609.118,149.558 608.474,156.986 605.42,158.194C598.662,160.866 605.507,147.677 602.206,122.526C601.498,117.127 607.416,116.63 608.358,121.528C616.194,162.277 658.855,155.025 662.688,136.548C667.529,113.213 639.464,104.22 624.704,97.079C596.097,83.238 604.471,58.215 606.864,53.704C615.485,37.453 638.574,37.276 639.484,37.181Z" style="fill-opacity:0.98;"/>
            <path d="M455.833,54.5C455.929,61.081 455.979,61.002 456.556,67.498C456.781,70.03 451.609,75.981 450.041,66.579C446.65,46.25 434.055,46.459 420.472,47.227C409.877,47.826 411.601,52.705 411.601,87.5C411.601,144.414 410.503,147.339 418.418,149.745C421.117,150.566 433.236,150.745 430.148,156.271C428.087,159.959 415.103,154.813 391.521,156.749C384.686,157.31 371.742,159.262 373.862,153.613C376.233,147.292 391.018,156.465 392.176,138.483C392.344,135.871 392.595,56.38 392.055,53.581C391.701,51.746 390.26,44.276 369.5,47.499C351.038,50.365 357.55,74.96 349.358,70.742C346.563,69.303 349.454,59.822 348.464,48.503C348.331,46.979 344.789,39.521 355.494,39.252C390.116,38.381 441.061,39.127 448.501,39.236C459.022,39.39 456.31,44.011 455.833,54.5Z" style="fill-opacity:0.98;"/>
            <path d="M58.688,60.506C58.608,69.831 58.324,138.4 58.926,141.429C61.754,155.647 79.032,147.276 77.345,155.456C76.279,160.627 63.449,154.689 38.52,156.74C33.632,157.143 16.316,159.788 21.431,152.442C25.125,147.138 38.964,157.666 39.19,134.497C39.969,54.599 40.023,53.677 35.128,48.874C30.236,44.074 18.497,46.128 20.96,40.661C23.312,35.44 28.03,41.657 61.488,39.273C67.701,38.831 78.705,37.109 76.832,42.604C75.341,46.977 60.362,42.705 58.883,56.55C58.742,57.863 58.828,59.193 58.688,60.506Z" style="fill-opacity:0.98;"/>
            <path d="M277.497,847.452C280.27,853.267 270.864,850.392 269.439,847.541C268.388,845.438 269.924,841.634 267.541,843.592C267.265,843.819 263.989,848.918 257.714,846.017C244.951,840.118 260.921,819.091 269.016,832.809C270.188,834.795 269.976,838.223 271.471,838.082C273.585,837.883 273.338,837.02 275.531,837.134C279.528,837.343 280.607,840.291 279.239,841.193C277.963,842.035 277.838,841.892 277.341,843.424C276.811,845.056 269.462,844.161 273.54,847.458C274.483,848.221 274.6,847.805 277.497,847.452ZM256.494,837.493C263.556,839.759 263.832,840.135 264.228,840.675C266.684,844.021 255.081,847.257 256.494,837.493ZM260.512,835.481C255.112,831.177 262.742,830.981 264.245,831.864C264.604,832.075 269.487,838.395 260.512,835.481Z" style="fill-opacity:0.86;"/>
            <path d="M525.701,786.487C525.83,786.213 526.592,780.56 535.065,786.706C542.077,796.939 533.639,795.785 532.038,798.055C530.016,800.922 529.988,801.199 526.502,801.519C524.286,801.724 525.245,803.457 523.196,805.099C517.835,809.395 512.742,813.609 512.766,810.468C512.817,803.762 514.901,801.545 508.409,799.83C507.552,799.604 501.634,798.553 503.517,796.512C506.239,793.561 511.111,790.437 511.822,789.981C515.014,787.935 517.989,793.453 514.557,792.932C510.985,792.39 508.099,796.064 510.393,796.686C510.486,796.711 515.705,796.816 515.766,800.511C515.838,804.816 515.082,805.528 516.491,805.708C516.926,805.763 523.105,802.552 521.126,797.621C519.189,792.796 518.884,789.952 522.549,788.184C522.816,789.367 523.107,789.276 522.869,790.477C522.194,793.889 525.87,798.279 527.519,798.404C532.83,798.81 524.456,791.763 525.65,789.587C527.186,786.789 531.293,793.876 531.756,794.165C534.714,796.01 537.042,787.344 525.701,786.487Z" style="fill-opacity:0.87;"/>
            <path d="M119.47,731.463C109.935,738.758 106.542,728.619 109.831,724.68C109.98,724.502 113.599,720.168 109.528,721.794C96.711,726.911 99.851,705.391 110.295,709.895C111.083,710.235 117.348,715.173 116.06,719.377C115.329,721.762 123.869,722.64 121.421,728.486C121.311,728.749 121.203,729.008 119.47,731.463ZM110.047,717.215C104.099,722.857 102.575,715.941 105.524,713.529C106.093,713.064 112.271,710.625 110.047,717.215ZM114.543,724.577C124.163,722.224 115.086,734.189 111.949,730.204C109.624,727.251 111.997,727.291 114.543,724.577Z" style="fill-opacity:0.85;"/>
            <path d="M208.062,803.534L207.268,804.316C206.664,804.426 206.06,804.536 205.457,804.646C200.111,804.214 200.337,809.35 201.312,809.649C202.731,810.084 201.329,810.477 201.324,810.487C201.196,810.778 201.574,811.143 201.446,811.434C195.43,813.761 196.185,808.268 199.526,804.523C201.083,802.778 201.8,801.722 199.537,801.41C197.362,801.111 196.702,794.907 195.573,799.52C192.528,811.971 178.539,800.271 185.925,792.945C191.432,787.483 199.953,797.155 200.785,798.099C201.952,799.424 205.395,799.048 208.062,803.534ZM189.534,794.596C190.029,794.602 196.17,794.679 192.098,800.222C189.099,804.304 183.392,799.269 189.534,794.596Z" style="fill-opacity:0.85;"/>
            <path d="M535.065,786.706C534.951,786.236 535.954,785.952 535.841,785.482C535.649,784.687 534.746,784.257 534.307,783.567C530.996,778.369 543.201,774.126 547.621,768.579C553.151,761.641 563.348,780.547 563.025,781.122C560.806,785.078 553.028,769.964 550.489,770.281C544.76,770.998 555.624,780.198 553.27,782.218C551.244,783.957 546.833,776.383 546.321,775.703C544.944,773.873 544.978,776.336 542.441,777.382C538.409,779.045 543.141,785.988 545.454,783.431C547.836,780.8 547.926,785.211 547.469,786.488C544.793,793.976 537.04,777.751 536.392,782.4C536.072,784.694 536.139,784.663 535.065,786.706Z" style="fill-opacity:0.88;"/>
            <path d="M563.496,758.548C570.799,760.242 572.984,768.214 567.338,772.385C565.376,773.835 571.451,780.567 566.393,778.76C566.326,778.736 557.911,768.167 557.345,766.54C554.809,759.25 562.692,758.613 563.496,758.548ZM565.588,763.401C571.349,771.622 563.465,769.802 562.883,769.108C562.529,768.687 558.828,764.281 560.587,762.628C562.244,761.071 565.256,763.169 565.588,763.401Z" style="fill-opacity:0.85;"/>
            <path d="M459.756,834.196C459.828,834.471 460.139,835.673 460.895,837.564C461.571,843.242 457.013,848.728 449.746,842.313C443.122,831.233 453.876,826.425 459.756,834.196ZM457.311,836.585C457.434,837.06 459.229,844.01 454.678,842.115C448.622,839.592 450.75,828.852 456.172,834.783C456.287,834.908 456.256,834.916 457.311,836.585Z" style="fill-opacity:0.82;"/>
            <path d="M123.523,730.977C129.24,732.578 126.504,735.215 121.785,738.87C118.126,741.704 121.961,744.448 125.51,741.516C125.71,741.351 132.371,735.848 128.583,742.526C127.953,744.631 127.913,744.559 127.797,746.811C125.11,749.631 126.843,750.028 128.509,753.496C130.595,757.837 123.997,761.544 120.895,757.267C120.75,757.067 119.58,752.331 123.789,756.207C124.667,757.016 126.476,756.075 125.6,754.459C123.638,750.841 123.278,750.847 124.001,746.728C124.189,745.658 120.853,746.038 119.627,745.279C112.43,740.823 121.62,735.929 122.776,733.495C122.683,732.093 122.692,732.126 123.523,730.977Z" style="fill-opacity:0.85;"/>
            <path d="M164.497,787.498C168.113,782.299 173,774.45 178.118,780.8C181.856,785.439 174.318,794.097 169.65,791.207C167.834,790.083 167.432,789.145 165.341,791.349C165.186,791.513 163.774,793.001 162.671,792.242C161.481,791.423 164.249,787.821 164.497,787.498ZM175.615,785.538C170.977,792.856 168.917,786.805 169.65,785.574C174.051,778.19 175.736,782.945 175.803,783.461C175.824,783.626 175.789,783.615 175.615,785.538Z" style="fill-opacity:0.82;"/>
            <path d="M163.44,785.754C160.485,783.565 158.523,784.132 159.698,780.617C162.667,771.731 155.374,778.586 153.53,778.392C152.04,778.236 148.302,774.76 152.541,774.956C153.38,774.995 159.817,773.323 160.28,772.383C161.895,769.103 157.367,759.507 163.523,764.465C165.407,765.983 165.297,766.27 164.53,768.513C164.415,768.849 163.141,774.222 168.778,769.793C170.991,768.055 175.714,773.425 171.625,772.938C170.582,772.814 161.477,771.729 163.926,783.567C163.999,783.923 164.56,784.15 164.481,784.505C164.363,785.034 163.557,785.225 163.44,785.754Z" style="fill-opacity:0.81;"/>
            <path d="M426.559,845.401C422.578,842.943 422.674,842.76 421.495,842.511C414.507,841.035 423.927,837.098 425.693,839.385C432.71,848.471 431.246,838.107 431.096,837.679C430.952,837.269 429.927,834.345 434.495,833.435C437.288,832.877 434.473,837.218 434.433,837.485C433.087,846.341 433.312,846.322 433.392,846.533C435.143,851.176 436.102,850.446 437.448,851.552C439.018,852.843 429.532,858.283 431.442,853.5C432.851,849.97 427.171,845.845 426.559,845.401Z" style="fill-opacity:0.85;"/>
            <path d="M291.537,849.518C283.069,862.168 275.225,842.243 285.533,839.683C287.999,839.07 294.466,841.519 291.537,849.518ZM288.515,848.506C283.526,855.407 281.752,840.869 287.498,842.503C289.81,843.16 288.63,848.032 288.515,848.506Z" style="fill-opacity:0.79;"/>
            <path d="M210.496,805.619C210.959,805.662 214.263,805.966 215.591,808.437C217.625,812.218 216.336,812.397 214.248,816.143C207.748,823.072 204.525,817.158 203.852,813.457C205.321,808.138 205.522,807.965 210.496,805.619ZM207.55,811.524C207.816,811.143 211.019,806.561 213.045,809.635C215.53,813.405 205.095,821.406 207.55,811.524Z" style="fill-opacity:0.8;"/>
            <path d="M96.681,712.772C91.923,715.923 92.8,712.063 92.973,711.81C94.529,709.535 106.641,704.448 102.426,701.83C100.425,700.588 92.762,708.447 92.595,704.482C92.508,702.441 99.452,699.354 99.402,698.469C99.288,696.488 98.44,695.479 100.49,695.598C102.699,695.726 103.272,698.977 103.708,699.393C110.82,706.184 104.614,707.049 96.681,712.772Z" style="fill-opacity:0.87;"/>
            <path d="M568.606,311.466C570.072,315.643 571.376,318.442 568.578,318.781C560,319.818 561.96,315.785 562.1,311.486C562.124,310.726 561.943,295.919 564.918,302.181C567.098,306.769 567.904,309.65 568.606,311.466Z" style="fill-opacity:0.04;"/>
            <path d="M499.29,314.115C489.618,317.119 491.509,309.565 492.696,308.851C494.65,307.676 494.665,307.762 495.937,305.854C497.015,304.237 502.891,303.972 504.191,305.737C506.413,308.754 499.91,313.648 499.29,314.115Z" style="fill-opacity:0.97;"/>
            <path d="M214.248,816.143C214.508,816.05 220.825,812.714 225.278,815.831C227.812,817.604 226.215,819.69 223.557,818.383C221.044,817.147 213.218,817.079 220.21,823.79C225.941,829.289 213.746,833.7 213.621,828.5C213.549,825.494 219.645,830.096 218.488,826.506C218.325,825.999 212.458,823.052 214.403,818.505C214.584,818.081 215.317,817.901 215.287,817.441C215.251,816.888 214.284,816.696 214.248,816.143Z" style="fill-opacity:0.8;"/>
            <path d="M459.756,834.196C463.144,832.07 460.02,829.435 465.605,825.665C468.372,823.798 470.154,826.498 467.403,828.341C466.92,828.664 461.476,832.309 464.77,835.102C468.244,838.048 471.033,830.705 475.896,836.315C475.081,836.752 474.266,837.189 473.452,837.626C468.477,837.812 466.866,841.397 462.588,837.162C461.907,836.489 461.89,836.999 460.895,837.564C460.139,835.673 459.828,834.471 459.756,834.196Z" style="fill-opacity:0.83;"/>
            <path d="M298.637,850.526C297.967,857.287 302.167,853.333 302.707,851.583C302.861,851.085 303.568,845.183 305.432,846.594C309.615,849.763 300.071,863.392 295.657,854.424C294.025,851.108 297.826,849.671 294.908,845.121C293.072,842.257 300.173,841.532 299.4,846.486C299.188,847.84 298.848,849.172 298.637,850.526Z" style="fill-opacity:0.81;"/>
            <path d="M514.465,332.206C514.929,333.38 515.42,333.173 515.382,334.528C515.167,342.064 515.316,345.053 513.435,345.157C507.135,345.506 503.602,345.116 506.667,339.611C507.784,337.605 508.272,338.307 510.446,337.387C512.95,336.327 514.401,332.318 514.465,332.206Z" style="fill-opacity:0.07;"/>
            <path d="M525.701,786.487C537.042,787.344 534.714,796.01 531.756,794.165C531.293,793.876 527.186,786.789 525.65,789.587C524.456,791.763 532.83,798.81 527.519,798.404C525.87,798.279 522.194,793.889 522.869,790.477C523.107,789.276 522.816,789.367 522.549,788.184C522.713,788.234 524.598,788.812 524.598,788.812C524.775,788.707 524.678,788.642 525.701,786.487Z" style="fill-opacity:0.11;"/>
            <path d="M89.548,700.392C87.553,697.611 86.159,696.418 89.427,695.285C90.242,695.002 98.72,689.473 99.392,688.403C99.398,688.395 100.152,684.768 102.03,687.858C103.393,690.1 104.135,691.061 101.597,691.783C99.041,692.511 92.654,697.059 89.548,700.392Z" style="fill-opacity:0.88;"/>
            <path d="M447.508,845.427C448.203,845.447 448.817,844.828 449.512,844.848C452.39,844.93 446.394,853.405 442.997,846.269C441.339,842.787 441.571,842.668 438.789,840.109C437.181,838.631 441.508,835.047 442.652,837.386C445.933,844.097 445.383,844.654 447.508,845.427Z" style="fill-opacity:0.85;"/>
            <path d="M181.406,797.314C173.799,798.139 178.346,793.184 181.649,786.545C182.639,784.555 187.173,784.851 184.134,789.237C181.537,792.985 180.294,792.883 181.406,797.314Z" style="fill-opacity:0.89;"/>
            <path d="M208.062,803.534C208.281,803.771 207.817,804.263 208.036,804.5C208.182,804.659 208.218,804.583 210.496,805.619C205.522,807.965 205.321,808.138 203.852,813.457C203.551,812.993 202.784,812.986 202.483,812.522C202.082,811.904 202.919,811.75 202.373,811.178C201.925,810.708 201.868,811.878 201.446,811.434C201.574,811.143 201.196,810.778 201.324,810.487C201.329,810.477 202.731,810.084 201.312,809.649C200.337,809.35 200.111,804.214 205.457,804.646C206.06,804.536 206.664,804.426 207.268,804.316L208.062,803.534Z" style="fill-opacity:0.12;"/>
            <path d="M256.494,837.493C263.556,839.759 263.832,840.135 264.228,840.675C266.684,844.021 255.081,847.257 256.494,837.493Z" style="fill-opacity:0.05;"/>
            <path d="M288.515,848.506C283.526,855.407 281.752,840.869 287.498,842.503C289.81,843.16 288.63,848.032 288.515,848.506Z" style="fill-opacity:0.05;"/>
            <path d="M128.583,742.526C129.006,742.777 128.623,743.676 129.046,743.926C129.074,743.943 131.832,743.749 134.699,746.238C138.681,749.695 135.534,750.674 134.616,750.225C133.813,749.831 133.046,748.511 131.567,747.424C130.021,746.287 128.112,746.825 127.797,746.811C127.913,744.559 127.953,744.631 128.583,742.526Z" style="fill-opacity:0.72;"/>
            <path d="M302.272,837.145C303.535,836.691 303.428,836.7 303.535,836.691C306.917,836.398 309.383,844.246 304.502,840.497C303.338,839.602 303.241,840.1 301.506,840.322C301.246,840.355 298.628,839.704 302.272,837.145Z" style="fill-opacity:0.59;"/>
            <path d="M475.896,836.315C479.181,843.786 469.339,844.664 470.985,841.56C471.305,840.958 474.04,839.568 474.08,839.126C474.129,838.586 473.402,838.166 473.452,837.626C474.266,837.189 475.081,836.752 475.896,836.315Z" style="fill-opacity:0.84;"/>
            <path d="M132.641,730.143C137.285,734.07 131.891,737.12 131.363,734.547C130.68,731.215 126.341,730.417 129.569,729.683C130.833,729.396 130.728,729.678 132.641,730.143Z" style="fill-opacity:0.62;"/>
            <path d="M542.421,761.479C544.475,755.933 545.906,761.745 545.315,764.439C545.244,764.763 542.301,767.498 542.421,761.479Z" style="fill-opacity:0.76;"/>
            <path d="M448.662,824.522C449.428,822.45 449.287,822.378 449.822,821.911C453.016,819.119 451.587,826.12 451.508,826.503C451.453,826.775 449.035,829.955 448.662,824.522Z" style="fill-opacity:0.78;"/>
            <path d="M217.404,801.303C219.331,800.727 219.312,800.68 219.486,800.681C223.02,800.7 220.024,803.75 217.555,804.651C217.303,804.743 213.337,804.706 217.404,801.303Z" style="fill-opacity:0.75;"/>
            <path d="M454.463,224.608C449.901,222.816 455.507,221.613 455.52,221.612C455.774,221.603 460.587,224.106 454.463,224.608Z" style="fill-opacity:0.13;"/>
        </g>
    </g>
</svg>
